<?xml version="1.0" encoding="UTF-8"?>
<svg id="Capa_1" data-name="Capa 1" xmlns="http://www.w3.org/2000/svg" viewBox="0 0 486.61 411.47">
  <defs>
    <style>
      .cls-1 {
        fill: #322a85;
      }
    </style>
  </defs>
  <path class="cls-1" d="m48.83,247.19c-8.32-12.02-22.31-35.77-26.4-68.8-2.79-22.54,0-41.38,2.93-53.85,14.51-3.46,38.09-7.09,66.34-2.37,42.05,7.03,70.31,28.51,82.62,39.18-.82-19.97.27-62.98,26.12-106.75,12.84-21.74,27.94-37.17,39.94-47.41,14.37,10.06,37.36,28.92,56.31,59.62,21.74,35.23,27.47,68.75,29.24,86.87,15.9-10.95,43.28-26.59,80.42-33.05,20.25-3.52,38.1-3.39,52.07-2.15.54,1.06,1.29,2.62,2.08,4.54,4.39,10.63,6.47,23.7,3.12,45.42-3.97,25.78-12.71,45.09-15.5,51.03-6.55,13.91-18.29,34.64-38.91,55.72,11,2.91,33.4,10.48,53.37,30.66,12.87,13,20.07,26.53,24.04,35.77-8.54,9.09-21.11,21.05-38.04,32.74-18.33,12.66-44.1,28.51-70.03,32.18-38.67,5.46-68.78-7.57-79.49-12.37-36.01-16.14-64.23-46.67-70.24-52.9-9.74-10.09-13.28-15.24-23.63-22.93-20.86-15.5-41.45-20.58-51.13-22.86-24.32-5.73-45.3-4.29-59.02-2.13-9.56,1.18-23.79,4.13-39.16,12.17-21.94,11.47-34.87,27.37-41.09,36.28,7.38,10.18,30.77,39.67,73.06,51.86,58.99,17.01,107.28-13.33,114.7-18.17,2.51-1.08,5.34-.32,6.72,1.61,1.69,2.36.98,6.16-1.99,7.95-11.39,7.49-30.78,18.22-57.06,23.56-29.21,5.94-48.45,1.47-64.64-3.6-12.91-4.04-32.04-10.55-49.49-24.51-16.72-13.38-28.37-27.3-36.06-38.04,1.37-2.83,3.5-6.84,6.53-11.36,21.93-32.63,59.13-42.62,76.94-47.41,12.97-3.49,32.79-7.27,57.63-5.96,10.56,1.68,25.86,5.19,42.59,13.34,18.42,8.98,29.7,19.26,39.46,27.82,44.77,39.28,53.19,47.48,76.8,59.91,13.65,7.19,21.59,11.37,33.96,14.01,0,0,39.57,10.58,104.81-28.9.23-.14,3.08-1.83,8.52-5.56,12.88-8.85,15.3-11.08,18.25-15.24,1.23-1.73,1.95-4.14,1.81-7.47-.37-8.72-18.41-26.42-43.57-40.86-13.64-7.83-27.05-9.67-35.36-7.12-19.66,6.05-38.11,15.52-57.16,23.28-3.95-.54-7.09-3.3-7.85-6.81-.81-3.69,1.35-6.63,1.7-7.1,22.07-8.94,51.77-19.32,78.64-43.44,20.65-17.08,29.28-31.91,31.61-37.48,8.75-20.9,13.76-36.98,13.16-40.93,2.52-19.1.2-34.6-2.33-43.81-13.04-1.34-43.67-2.72-75.94,13.2-23.33,11.51-40.6,24.27-45.99,36.91-5.08,11.91-8.78,25.72-15.05,39.75-11.03,24.69-23.51,45.3-35.2,61.89-2.76,1.14-5.88.42-7.67-1.7-2.22-2.64-1.21-6.03-1.14-6.25,6.6-7.9,55.55-68.54,38.89-149.05-12.25-59.24-52.52-92.93-64.45-102.21-10.52,9.47-32.59,31.91-44.29,68.42-12.59,39.29-6.04,72.65-2.56,86.31,7.57,17.6,15.14,35.2,22.71,52.81-.24.73-1.17,3.25-3.69,4.54-3.02,1.55-7.11.69-9.94-2.27-6.13-13.2-15.51-29.84-29.81-46.84-9.88-11.74-19.91-20.91-28.67-28.11-9.51-7.81-30.44-17.23-55.65-22.14-19.76-3.85-36.77-3.32-48.83-1.99-1.91,11.11-3.27,26.53-.85,44.57,3.67,27.41,14.31,47.78,21.58,59.34.05.34.52,4.33-2.56,7.1-2.21,1.99-5.39,2.57-8.23,1.51Z"/>
</svg>