<?xml version="1.0" encoding="UTF-8" standalone="no"?>
<!DOCTYPE svg PUBLIC "-//W3C//DTD SVG 1.1//EN" "http://www.w3.org/Graphics/SVG/1.1/DTD/svg11.dtd">
<svg xmlns="http://www.w3.org/2000/svg" version="1.1" viewBox="0.00 0.00 1138.00 550.00">
<g stroke-width="2.00" fill="none" stroke-linecap="butt">
<path stroke="#9980cc" vector-effect="non-scaling-stroke" d="
  M 525.03 221.11
  Q 525.19 222.01 524.55 221.36
  Q 504.63 200.92 476.56 206.12
  A 2.53 2.52 5.0 0 0 474.65 207.72
  C 469.87 220.65 473.34 237.41 481.95 247.97
  Q 482.84 249.06 484.18 248.62
  Q 484.67 248.46 484.90 247.93
  Q 485.64 246.27 484.66 244.74
  C 477.97 234.27 475.15 223.60 478.02 211.05
  A 1.69 1.68 2.5 0 1 479.43 209.76
  C 499.71 206.97 515.45 214.72 526.67 230.83
  C 529.58 235.01 530.78 239.75 533.87 243.87
  Q 535.05 245.44 536.80 243.98
  A 1.90 1.89 -31.3 0 0 537.34 241.78
  C 535.73 237.98 533.38 234.33 531.88 230.54
  C 523.37 209.07 529.73 188.15 545.89 172.47
  Q 546.91 171.48 547.96 172.45
  C 567.56 190.64 576.64 215.85 564.89 241.23
  Q 561.38 248.81 555.11 256.93
  A 2.36 2.36 0.0 0 0 554.93 259.53
  Q 555.14 259.89 555.49 260.06
  Q 557.22 260.88 558.40 259.39
  Q 567.78 247.54 572.11 233.34
  C 572.99 230.47 572.84 227.03 574.59 224.54
  Q 576.03 222.50 577.83 220.75
  C 588.47 210.41 602.03 206.95 616.59 208.51
  Q 617.14 208.57 617.21 209.12
  Q 620.77 240.27 596.03 256.55
  Q 588.51 261.50 576.07 265.19
  Q 574.47 265.67 574.45 267.34
  Q 574.44 268.42 575.76 269.16
  A 1.91 1.88 -37.3 0 0 577.16 269.34
  Q 586.41 266.96 595.54 261.63
  C 597.32 260.59 599.13 260.76 601.02 261.33
  C 611.18 264.38 619.36 269.27 624.35 279.06
  A 0.75 0.74 -36.2 0 1 624.21 279.94
  C 615.22 288.68 604.60 295.69 592.29 297.85
  Q 576.02 300.71 562.56 291.44
  C 548.08 281.47 537.62 266.41 520.49 260.39
  C 500.25 253.28 478.58 263.85 465.65 279.05
  A 1.83 1.83 0.0 0 0 465.55 281.29
  C 476.33 296.58 493.32 306.34 512.26 303.78
  Q 523.36 302.28 535.37 295.15
  A 1.66 1.64 77.9 0 0 536.16 293.91
  Q 536.27 292.91 535.76 292.30
  Q 534.64 290.97 533.10 291.80
  C 526.16 295.53 518.86 298.90 510.92 299.78
  C 494.62 301.57 480.27 293.76 470.58 281.04
  A 0.83 0.82 -42.7 0 1 470.63 279.97
  C 481.59 268.23 497.84 260.09 513.95 262.98
  C 528.33 265.55 539.04 276.68 549.23 286.16
  C 554.63 291.20 560.82 295.75 567.50 298.93
  C 589.64 309.49 612.76 297.73 628.48 281.92
  Q 629.69 280.69 629.04 279.07
  C 624.45 267.80 615.02 261.13 603.22 257.74
  Q 602.44 257.52 603.08 257.01
  C 618.41 244.97 624.65 225.89 621.19 207.08
  Q 620.82 205.06 618.92 204.80
  Q 606.90 203.14 594.92 206.45
  C 587.08 208.62 581.00 212.69 574.99 218.02
  A 0.37 0.37 0.0 0 1 574.38 217.75
  C 574.33 198.32 563.88 180.48 549.03 167.81
  Q 547.88 166.84 546.50 166.89
  Q 546.00 166.91 545.62 167.24
  C 529.69 181.04 521.36 199.89 525.03 221.11"
/>
<path stroke="#9980cc" vector-effect="non-scaling-stroke" d="
  M 356.48 408.71
  L 394.13 357.58
  A 3.18 3.16 -26.9 0 0 394.75 355.70
  L 394.75 346.55
  Q 394.75 345.85 394.05 345.85
  L 342.61 345.86
  A 0.48 0.48 0.0 0 0 342.13 346.34
  L 342.11 356.16
  A 0.49 0.49 0.0 0 0 342.60 356.65
  L 380.75 356.65
  A 0.23 0.23 0.0 0 1 380.94 357.02
  Q 362.15 382.41 343.70 407.20
  Q 341.80 409.75 342.02 411.68
  C 342.30 414.26 342.08 417.02 342.19 419.58
  Q 342.21 420.15 342.78 420.15
  L 394.04 420.14
  Q 394.72 420.14 394.72 419.46
  L 394.77 409.75
  Q 394.77 409.24 394.26 409.24
  L 356.75 409.25
  Q 356.09 409.25 356.48 408.71"
/>
<path stroke="#9980cc" vector-effect="non-scaling-stroke" d="
  M 431.91 356.62
  L 464.77 356.53
  A 0.55 0.55 0.0 0 0 465.32 355.99
  L 465.44 346.18
  A 0.32 0.32 0.0 0 0 465.12 345.86
  L 421.04 345.86
  Q 420.47 345.86 420.48 346.42
  Q 420.60 360.67 420.44 375.34
  C 420.42 376.92 420.18 378.39 418.80 379.39
  Q 416.67 380.93 414.86 382.78
  A 0.59 0.59 0.0 0 0 414.90 383.64
  L 419.68 387.79
  Q 420.04 388.10 420.10 388.57
  Q 420.70 392.79 420.63 396.69
  Q 420.44 407.33 420.50 418.82
  Q 420.51 420.01 421.70 420.01
  L 464.77 420.01
  A 0.54 0.53 0.0 0 0 465.31 419.48
  L 465.40 409.70
  Q 465.41 409.24 464.95 409.24
  L 432.19 409.27
  A 0.90 0.89 89.7 0 1 431.30 408.38
  L 431.28 388.95
  A 0.38 0.38 0.0 0 1 431.66 388.57
  L 457.00 388.53
  A 0.47 0.46 0.0 0 0 457.47 388.07
  L 457.52 378.51
  A 0.76 0.75 0.0 0 0 456.76 377.76
  L 431.98 377.78
  A 0.79 0.78 0.7 0 1 431.19 376.98
  L 431.45 357.09
  Q 431.45 356.62 431.91 356.62"
/>
<path stroke="#9980cc" vector-effect="non-scaling-stroke" d="
  M 502.87 366.32
  A 0.31 0.31 0.0 0 1 503.45 366.17
  L 533.75 420.01
  A 0.31 0.31 0.0 0 0 534.02 420.17
  L 544.28 420.15
  A 0.31 0.31 0.0 0 0 544.59 419.84
  L 544.63 388.73
  A 0.31 0.31 0.0 0 1 544.74 388.50
  L 550.58 383.42
  A 0.31 0.31 0.0 0 0 550.58 382.95
  L 544.73 377.97
  A 0.31 0.31 0.0 0 1 544.62 377.74
  L 544.61 346.15
  A 0.31 0.31 0.0 0 0 544.30 345.84
  L 534.06 345.85
  A 0.31 0.31 0.0 0 0 533.75 346.16
  L 533.76 398.08
  A 0.31 0.31 0.0 0 1 533.18 398.23
  L 503.54 346.01
  A 0.31 0.31 0.0 0 0 503.27 345.85
  L 492.30 345.85
  A 0.31 0.31 0.0 0 0 491.99 346.16
  L 492.01 377.72
  A 0.31 0.31 0.0 0 1 491.90 377.95
  L 486.05 382.93
  A 0.31 0.31 0.0 0 0 486.04 383.40
  L 491.89 388.46
  A 0.31 0.31 0.0 0 1 492.00 388.69
  L 492.00 419.83
  A 0.31 0.31 0.0 0 0 492.31 420.14
  L 502.53 420.13
  A 0.31 0.31 0.0 0 0 502.84 419.82
  L 502.87 366.32"
/>
<path stroke="#9980cc" vector-effect="non-scaling-stroke" d="
  M 589.75 377.94
  A 0.54 0.54 0.0 0 1 589.56 377.53
  L 589.62 346.41
  A 0.54 0.54 0.0 0 0 589.08 345.87
  L 579.45 345.88
  A 0.54 0.54 0.0 0 0 578.91 346.42
  L 578.87 377.63
  A 0.54 0.54 0.0 0 1 578.68 378.04
  L 573.00 382.85
  A 0.54 0.54 0.0 0 0 573.00 383.67
  L 578.70 388.51
  A 0.54 0.54 0.0 0 1 578.89 388.92
  L 578.89 419.59
  A 0.54 0.54 0.0 0 0 579.43 420.13
  L 589.02 420.13
  A 0.54 0.54 0.0 0 0 589.56 419.59
  L 589.58 388.99
  A 0.54 0.54 0.0 0 1 589.76 388.59
  L 595.37 383.61
  A 0.54 0.54 0.0 0 0 595.36 382.80
  L 589.75 377.94"
/>
<path stroke="#9980cc" vector-effect="non-scaling-stroke" d="
  M 636.61 356.64
  L 668.20 356.59
  A 1.05 1.04 -0.3 0 0 669.24 355.55
  L 669.25 346.44
  Q 669.25 345.87 668.69 345.87
  L 625.31 345.84
  A 0.34 0.34 0.0 0 0 624.97 346.18
  Q 625.08 361.38 624.87 375.99
  C 624.82 379.08 621.71 380.96 619.50 382.66
  A 0.69 0.69 0.0 0 0 619.49 383.75
  C 622.01 385.77 625.03 387.07 625.03 390.85
  Q 625.01 405.36 625.01 419.26
  A 0.91 0.90 89.7 0 0 625.92 420.17
  L 635.09 420.09
  A 0.92 0.92 0.0 0 0 636.00 419.16
  L 635.83 389.21
  Q 635.83 388.50 636.54 388.50
  L 661.81 388.60
  A 0.44 0.44 0.0 0 0 662.25 388.16
  L 662.27 378.24
  A 0.53 0.52 0.0 0 0 661.74 377.72
  L 637.24 377.88
  Q 636.01 377.88 635.95 376.65
  Q 635.55 367.82 636.03 357.20
  Q 636.06 356.64 636.61 356.64"
/>
<path stroke="#9980cc" vector-effect="non-scaling-stroke" d="
  M 718.64 375.78
  L 698.70 346.51
  A 1.48 1.47 72.8 0 0 697.48 345.86
  L 686.24 345.86
  A 0.23 0.23 0.0 0 0 686.05 346.21
  L 712.79 386.37
  Q 713.64 387.64 713.64 389.18
  L 713.61 419.26
  Q 713.61 420.15 714.51 420.15
  L 723.92 420.14
  A 0.57 0.56 0.0 0 0 724.49 419.58
  L 724.51 388.97
  A 4.66 4.61 -28.6 0 1 725.27 386.43
  Q 738.45 366.44 751.53 347.27
  Q 751.80 346.88 752.10 346.47
  A 0.37 0.37 0.0 0 0 751.80 345.88
  L 741.07 345.86
  A 2.06 2.05 17.0 0 0 739.37 346.76
  L 719.73 375.77
  A 0.66 0.66 0.0 0 1 718.64 375.78"
/>
</g>
<path fill="#ffffff" d="
  M 0.00 0.00
  L 1138.00 0.00
  L 1138.00 550.00
  L 0.00 550.00
  L 0.00 0.00
  Z
  M 525.03 221.11
  Q 525.19 222.01 524.55 221.36
  Q 504.63 200.92 476.56 206.12
  A 2.53 2.52 5.0 0 0 474.65 207.72
  C 469.87 220.65 473.34 237.41 481.95 247.97
  Q 482.84 249.06 484.18 248.62
  Q 484.67 248.46 484.90 247.93
  Q 485.64 246.27 484.66 244.74
  C 477.97 234.27 475.15 223.60 478.02 211.05
  A 1.69 1.68 2.5 0 1 479.43 209.76
  C 499.71 206.97 515.45 214.72 526.67 230.83
  C 529.58 235.01 530.78 239.75 533.87 243.87
  Q 535.05 245.44 536.80 243.98
  A 1.90 1.89 -31.3 0 0 537.34 241.78
  C 535.73 237.98 533.38 234.33 531.88 230.54
  C 523.37 209.07 529.73 188.15 545.89 172.47
  Q 546.91 171.48 547.96 172.45
  C 567.56 190.64 576.64 215.85 564.89 241.23
  Q 561.38 248.81 555.11 256.93
  A 2.36 2.36 0.0 0 0 554.93 259.53
  Q 555.14 259.89 555.49 260.06
  Q 557.22 260.88 558.40 259.39
  Q 567.78 247.54 572.11 233.34
  C 572.99 230.47 572.84 227.03 574.59 224.54
  Q 576.03 222.50 577.83 220.75
  C 588.47 210.41 602.03 206.95 616.59 208.51
  Q 617.14 208.57 617.21 209.12
  Q 620.77 240.27 596.03 256.55
  Q 588.51 261.50 576.07 265.19
  Q 574.47 265.67 574.45 267.34
  Q 574.44 268.42 575.76 269.16
  A 1.91 1.88 -37.3 0 0 577.16 269.34
  Q 586.41 266.96 595.54 261.63
  C 597.32 260.59 599.13 260.76 601.02 261.33
  C 611.18 264.38 619.36 269.27 624.35 279.06
  A 0.75 0.74 -36.2 0 1 624.21 279.94
  C 615.22 288.68 604.60 295.69 592.29 297.85
  Q 576.02 300.71 562.56 291.44
  C 548.08 281.47 537.62 266.41 520.49 260.39
  C 500.25 253.28 478.58 263.85 465.65 279.05
  A 1.83 1.83 0.0 0 0 465.55 281.29
  C 476.33 296.58 493.32 306.34 512.26 303.78
  Q 523.36 302.28 535.37 295.15
  A 1.66 1.64 77.9 0 0 536.16 293.91
  Q 536.27 292.91 535.76 292.30
  Q 534.64 290.97 533.10 291.80
  C 526.16 295.53 518.86 298.90 510.92 299.78
  C 494.62 301.57 480.27 293.76 470.58 281.04
  A 0.83 0.82 -42.7 0 1 470.63 279.97
  C 481.59 268.23 497.84 260.09 513.95 262.98
  C 528.33 265.55 539.04 276.68 549.23 286.16
  C 554.63 291.20 560.82 295.75 567.50 298.93
  C 589.64 309.49 612.76 297.73 628.48 281.92
  Q 629.69 280.69 629.04 279.07
  C 624.45 267.80 615.02 261.13 603.22 257.74
  Q 602.44 257.52 603.08 257.01
  C 618.41 244.97 624.65 225.89 621.19 207.08
  Q 620.82 205.06 618.92 204.80
  Q 606.90 203.14 594.92 206.45
  C 587.08 208.62 581.00 212.69 574.99 218.02
  A 0.37 0.37 0.0 0 1 574.38 217.75
  C 574.33 198.32 563.88 180.48 549.03 167.81
  Q 547.88 166.84 546.50 166.89
  Q 546.00 166.91 545.62 167.24
  C 529.69 181.04 521.36 199.89 525.03 221.11
  Z
  M 356.48 408.71
  L 394.13 357.58
  A 3.18 3.16 -26.9 0 0 394.75 355.70
  L 394.75 346.55
  Q 394.75 345.85 394.05 345.85
  L 342.61 345.86
  A 0.48 0.48 0.0 0 0 342.13 346.34
  L 342.11 356.16
  A 0.49 0.49 0.0 0 0 342.60 356.65
  L 380.75 356.65
  A 0.23 0.23 0.0 0 1 380.94 357.02
  Q 362.15 382.41 343.70 407.20
  Q 341.80 409.75 342.02 411.68
  C 342.30 414.26 342.08 417.02 342.19 419.58
  Q 342.21 420.15 342.78 420.15
  L 394.04 420.14
  Q 394.72 420.14 394.72 419.46
  L 394.77 409.75
  Q 394.77 409.24 394.26 409.24
  L 356.75 409.25
  Q 356.09 409.25 356.48 408.71
  Z
  M 431.91 356.62
  L 464.77 356.53
  A 0.55 0.55 0.0 0 0 465.32 355.99
  L 465.44 346.18
  A 0.32 0.32 0.0 0 0 465.12 345.86
  L 421.04 345.86
  Q 420.47 345.86 420.48 346.42
  Q 420.60 360.67 420.44 375.34
  C 420.42 376.92 420.18 378.39 418.80 379.39
  Q 416.67 380.93 414.86 382.78
  A 0.59 0.59 0.0 0 0 414.90 383.64
  L 419.68 387.79
  Q 420.04 388.10 420.10 388.57
  Q 420.70 392.79 420.63 396.69
  Q 420.44 407.33 420.50 418.82
  Q 420.51 420.01 421.70 420.01
  L 464.77 420.01
  A 0.54 0.53 0.0 0 0 465.31 419.48
  L 465.40 409.70
  Q 465.41 409.24 464.95 409.24
  L 432.19 409.27
  A 0.90 0.89 89.7 0 1 431.30 408.38
  L 431.28 388.95
  A 0.38 0.38 0.0 0 1 431.66 388.57
  L 457.00 388.53
  A 0.47 0.46 0.0 0 0 457.47 388.07
  L 457.52 378.51
  A 0.76 0.75 0.0 0 0 456.76 377.76
  L 431.98 377.78
  A 0.79 0.78 0.7 0 1 431.19 376.98
  L 431.45 357.09
  Q 431.45 356.62 431.91 356.62
  Z
  M 502.87 366.32
  A 0.31 0.31 0.0 0 1 503.45 366.17
  L 533.75 420.01
  A 0.31 0.31 0.0 0 0 534.02 420.17
  L 544.28 420.15
  A 0.31 0.31 0.0 0 0 544.59 419.84
  L 544.63 388.73
  A 0.31 0.31 0.0 0 1 544.74 388.50
  L 550.58 383.42
  A 0.31 0.31 0.0 0 0 550.58 382.95
  L 544.73 377.97
  A 0.31 0.31 0.0 0 1 544.62 377.74
  L 544.61 346.15
  A 0.31 0.31 0.0 0 0 544.30 345.84
  L 534.06 345.85
  A 0.31 0.31 0.0 0 0 533.75 346.16
  L 533.76 398.08
  A 0.31 0.31 0.0 0 1 533.18 398.23
  L 503.54 346.01
  A 0.31 0.31 0.0 0 0 503.27 345.85
  L 492.30 345.85
  A 0.31 0.31 0.0 0 0 491.99 346.16
  L 492.01 377.72
  A 0.31 0.31 0.0 0 1 491.90 377.95
  L 486.05 382.93
  A 0.31 0.31 0.0 0 0 486.04 383.40
  L 491.89 388.46
  A 0.31 0.31 0.0 0 1 492.00 388.69
  L 492.00 419.83
  A 0.31 0.31 0.0 0 0 492.31 420.14
  L 502.53 420.13
  A 0.31 0.31 0.0 0 0 502.84 419.82
  L 502.87 366.32
  Z
  M 589.75 377.94
  A 0.54 0.54 0.0 0 1 589.56 377.53
  L 589.62 346.41
  A 0.54 0.54 0.0 0 0 589.08 345.87
  L 579.45 345.88
  A 0.54 0.54 0.0 0 0 578.91 346.42
  L 578.87 377.63
  A 0.54 0.54 0.0 0 1 578.68 378.04
  L 573.00 382.85
  A 0.54 0.54 0.0 0 0 573.00 383.67
  L 578.70 388.51
  A 0.54 0.54 0.0 0 1 578.89 388.92
  L 578.89 419.59
  A 0.54 0.54 0.0 0 0 579.43 420.13
  L 589.02 420.13
  A 0.54 0.54 0.0 0 0 589.56 419.59
  L 589.58 388.99
  A 0.54 0.54 0.0 0 1 589.76 388.59
  L 595.37 383.61
  A 0.54 0.54 0.0 0 0 595.36 382.80
  L 589.75 377.94
  Z
  M 636.61 356.64
  L 668.20 356.59
  A 1.05 1.04 -0.3 0 0 669.24 355.55
  L 669.25 346.44
  Q 669.25 345.87 668.69 345.87
  L 625.31 345.84
  A 0.34 0.34 0.0 0 0 624.97 346.18
  Q 625.08 361.38 624.87 375.99
  C 624.82 379.08 621.71 380.96 619.50 382.66
  A 0.69 0.69 0.0 0 0 619.49 383.75
  C 622.01 385.77 625.03 387.07 625.03 390.85
  Q 625.01 405.36 625.01 419.26
  A 0.91 0.90 89.7 0 0 625.92 420.17
  L 635.09 420.09
  A 0.92 0.92 0.0 0 0 636.00 419.16
  L 635.83 389.21
  Q 635.83 388.50 636.54 388.50
  L 661.81 388.60
  A 0.44 0.44 0.0 0 0 662.25 388.16
  L 662.27 378.24
  A 0.53 0.52 0.0 0 0 661.74 377.72
  L 637.24 377.88
  Q 636.01 377.88 635.95 376.65
  Q 635.55 367.82 636.03 357.20
  Q 636.06 356.64 636.61 356.64
  Z
  M 718.64 375.78
  L 698.70 346.51
  A 1.48 1.47 72.8 0 0 697.48 345.86
  L 686.24 345.86
  A 0.23 0.23 0.0 0 0 686.05 346.21
  L 712.79 386.37
  Q 713.64 387.64 713.64 389.18
  L 713.61 419.26
  Q 713.61 420.15 714.51 420.15
  L 723.92 420.14
  A 0.57 0.56 0.0 0 0 724.49 419.58
  L 724.51 388.97
  A 4.66 4.61 -28.6 0 1 725.27 386.43
  Q 738.45 366.44 751.53 347.27
  Q 751.80 346.88 752.10 346.47
  A 0.37 0.37 0.0 0 0 751.80 345.88
  L 741.07 345.86
  A 2.06 2.05 17.0 0 0 739.37 346.76
  L 719.73 375.77
  A 0.66 0.66 0.0 0 1 718.64 375.78
  Z"
/>
<path fill="#330099" d="
  M 525.03 221.11
  C 521.36 199.89 529.69 181.04 545.62 167.24
  Q 546.00 166.91 546.50 166.89
  Q 547.88 166.84 549.03 167.81
  C 563.88 180.48 574.33 198.32 574.38 217.75
  A 0.37 0.37 0.0 0 0 574.99 218.02
  C 581.00 212.69 587.08 208.62 594.92 206.45
  Q 606.90 203.14 618.92 204.80
  Q 620.82 205.06 621.19 207.08
  C 624.65 225.89 618.41 244.97 603.08 257.01
  Q 602.44 257.52 603.22 257.74
  C 615.02 261.13 624.45 267.80 629.04 279.07
  Q 629.69 280.69 628.48 281.92
  C 612.76 297.73 589.64 309.49 567.50 298.93
  C 560.82 295.75 554.63 291.20 549.23 286.16
  C 539.04 276.68 528.33 265.55 513.95 262.98
  C 497.84 260.09 481.59 268.23 470.63 279.97
  A 0.83 0.82 -42.7 0 0 470.58 281.04
  C 480.27 293.76 494.62 301.57 510.92 299.78
  C 518.86 298.90 526.16 295.53 533.10 291.80
  Q 534.64 290.97 535.76 292.30
  Q 536.27 292.91 536.16 293.91
  A 1.66 1.64 77.9 0 1 535.37 295.15
  Q 523.36 302.28 512.26 303.78
  C 493.32 306.34 476.33 296.58 465.55 281.29
  A 1.83 1.83 0.0 0 1 465.65 279.05
  C 478.58 263.85 500.25 253.28 520.49 260.39
  C 537.62 266.41 548.08 281.47 562.56 291.44
  Q 576.02 300.71 592.29 297.85
  C 604.60 295.69 615.22 288.68 624.21 279.94
  A 0.75 0.74 -36.2 0 0 624.35 279.06
  C 619.36 269.27 611.18 264.38 601.02 261.33
  C 599.13 260.76 597.32 260.59 595.54 261.63
  Q 586.41 266.96 577.16 269.34
  A 1.91 1.88 -37.3 0 1 575.76 269.16
  Q 574.44 268.42 574.45 267.34
  Q 574.47 265.67 576.07 265.19
  Q 588.51 261.50 596.03 256.55
  Q 620.77 240.27 617.21 209.12
  Q 617.14 208.57 616.59 208.51
  C 602.03 206.95 588.47 210.41 577.83 220.75
  Q 576.03 222.50 574.59 224.54
  C 572.84 227.03 572.99 230.47 572.11 233.34
  Q 567.78 247.54 558.40 259.39
  Q 557.22 260.88 555.49 260.06
  Q 555.14 259.89 554.93 259.53
  A 2.36 2.36 0.0 0 1 555.11 256.93
  Q 561.38 248.81 564.89 241.23
  C 576.64 215.85 567.56 190.64 547.96 172.45
  Q 546.91 171.48 545.89 172.47
  C 529.73 188.15 523.37 209.07 531.88 230.54
  C 533.38 234.33 535.73 237.98 537.34 241.78
  A 1.90 1.89 -31.3 0 1 536.80 243.98
  Q 535.05 245.44 533.87 243.87
  C 530.78 239.75 529.58 235.01 526.67 230.83
  C 515.45 214.72 499.71 206.97 479.43 209.76
  A 1.69 1.68 2.5 0 0 478.02 211.05
  C 475.15 223.60 477.97 234.27 484.66 244.74
  Q 485.64 246.27 484.90 247.93
  Q 484.67 248.46 484.18 248.62
  Q 482.84 249.06 481.95 247.97
  C 473.34 237.41 469.87 220.65 474.65 207.72
  A 2.53 2.52 5.0 0 1 476.56 206.12
  Q 504.63 200.92 524.55 221.36
  Q 525.19 222.01 525.03 221.11
  Z"
/>
<path fill="#330099" d="
  M 356.75 409.25
  L 394.26 409.24
  Q 394.77 409.24 394.77 409.75
  L 394.72 419.46
  Q 394.72 420.14 394.04 420.14
  L 342.78 420.15
  Q 342.21 420.15 342.19 419.58
  C 342.08 417.02 342.30 414.26 342.02 411.68
  Q 341.80 409.75 343.70 407.20
  Q 362.15 382.41 380.94 357.02
  A 0.23 0.23 0.0 0 0 380.75 356.65
  L 342.60 356.65
  A 0.49 0.49 0.0 0 1 342.11 356.16
  L 342.13 346.34
  A 0.48 0.48 0.0 0 1 342.61 345.86
  L 394.05 345.85
  Q 394.75 345.85 394.75 346.55
  L 394.75 355.70
  A 3.18 3.16 -26.9 0 1 394.13 357.58
  L 356.48 408.71
  Q 356.09 409.25 356.75 409.25
  Z"
/>
<path fill="#330099" d="
  M 431.45 357.09
  L 431.19 376.98
  A 0.79 0.78 0.7 0 0 431.98 377.78
  L 456.76 377.76
  A 0.76 0.75 0.0 0 1 457.52 378.51
  L 457.47 388.07
  A 0.47 0.46 -0.0 0 1 457.00 388.53
  L 431.66 388.57
  A 0.38 0.38 0.0 0 0 431.28 388.95
  L 431.30 408.38
  A 0.90 0.89 89.7 0 0 432.19 409.27
  L 464.95 409.24
  Q 465.41 409.24 465.40 409.70
  L 465.31 419.48
  A 0.54 0.53 0.0 0 1 464.77 420.01
  L 421.70 420.01
  Q 420.51 420.01 420.50 418.82
  Q 420.44 407.33 420.63 396.69
  Q 420.70 392.79 420.10 388.57
  Q 420.04 388.10 419.68 387.79
  L 414.90 383.64
  A 0.59 0.59 0.0 0 1 414.86 382.78
  Q 416.67 380.93 418.80 379.39
  C 420.18 378.39 420.42 376.92 420.44 375.34
  Q 420.60 360.67 420.48 346.42
  Q 420.47 345.86 421.04 345.86
  L 465.12 345.86
  A 0.32 0.32 0.0 0 1 465.44 346.18
  L 465.32 355.99
  A 0.55 0.55 0.0 0 1 464.77 356.53
  L 431.91 356.62
  Q 431.45 356.62 431.45 357.09
  Z"
/>
<path fill="#330099" d="
  M 502.87 366.32
  L 502.84 419.82
  A 0.31 0.31 0.0 0 1 502.53 420.13
  L 492.31 420.14
  A 0.31 0.31 0.0 0 1 492.00 419.83
  L 492.00 388.69
  A 0.31 0.31 0.0 0 0 491.89 388.46
  L 486.04 383.40
  A 0.31 0.31 0.0 0 1 486.05 382.93
  L 491.90 377.95
  A 0.31 0.31 0.0 0 0 492.01 377.72
  L 491.99 346.16
  A 0.31 0.31 0.0 0 1 492.30 345.85
  L 503.27 345.85
  A 0.31 0.31 0.0 0 1 503.54 346.01
  L 533.18 398.23
  A 0.31 0.31 0.0 0 0 533.76 398.08
  L 533.75 346.16
  A 0.31 0.31 0.0 0 1 534.06 345.85
  L 544.30 345.84
  A 0.31 0.31 0.0 0 1 544.61 346.15
  L 544.62 377.74
  A 0.31 0.31 0.0 0 0 544.73 377.97
  L 550.58 382.95
  A 0.31 0.31 0.0 0 1 550.58 383.42
  L 544.74 388.50
  A 0.31 0.31 0.0 0 0 544.63 388.73
  L 544.59 419.84
  A 0.31 0.31 0.0 0 1 544.28 420.15
  L 534.02 420.17
  A 0.31 0.31 0.0 0 1 533.75 420.01
  L 503.45 366.17
  A 0.31 0.31 0.0 0 0 502.87 366.32
  Z"
/>
<path fill="#330099" d="
  M 589.75 377.94
  L 595.36 382.80
  A 0.54 0.54 0.0 0 1 595.37 383.61
  L 589.76 388.59
  A 0.54 0.54 0.0 0 0 589.58 388.99
  L 589.56 419.59
  A 0.54 0.54 0.0 0 1 589.02 420.13
  L 579.43 420.13
  A 0.54 0.54 0.0 0 1 578.89 419.59
  L 578.89 388.92
  A 0.54 0.54 0.0 0 0 578.70 388.51
  L 573.00 383.67
  A 0.54 0.54 0.0 0 1 573.00 382.85
  L 578.68 378.04
  A 0.54 0.54 0.0 0 0 578.87 377.63
  L 578.91 346.42
  A 0.54 0.54 0.0 0 1 579.45 345.88
  L 589.08 345.87
  A 0.54 0.54 0.0 0 1 589.62 346.41
  L 589.56 377.53
  A 0.54 0.54 0.0 0 0 589.75 377.94
  Z"
/>
<path fill="#330099" d="
  M 636.03 357.20
  Q 635.55 367.82 635.95 376.65
  Q 636.01 377.88 637.24 377.88
  L 661.74 377.72
  A 0.53 0.52 -0.0 0 1 662.27 378.24
  L 662.25 388.16
  A 0.44 0.44 0.0 0 1 661.81 388.60
  L 636.54 388.50
  Q 635.83 388.50 635.83 389.21
  L 636.00 419.16
  A 0.92 0.92 0.0 0 1 635.09 420.09
  L 625.92 420.17
  A 0.91 0.90 89.7 0 1 625.01 419.26
  Q 625.01 405.36 625.03 390.85
  C 625.03 387.07 622.01 385.77 619.49 383.75
  A 0.69 0.69 0.0 0 1 619.50 382.66
  C 621.71 380.96 624.82 379.08 624.87 375.99
  Q 625.08 361.38 624.97 346.18
  A 0.34 0.34 0.0 0 1 625.31 345.84
  L 668.69 345.87
  Q 669.25 345.87 669.25 346.44
  L 669.24 355.55
  A 1.05 1.04 -0.3 0 1 668.20 356.59
  L 636.61 356.64
  Q 636.06 356.64 636.03 357.20
  Z"
/>
<path fill="#330099" d="
  M 718.64 375.78
  A 0.66 0.66 0.0 0 0 719.73 375.77
  L 739.37 346.76
  A 2.06 2.05 17.0 0 1 741.07 345.86
  L 751.80 345.88
  A 0.37 0.37 0.0 0 1 752.10 346.47
  Q 751.80 346.88 751.53 347.27
  Q 738.45 366.44 725.27 386.43
  A 4.66 4.61 -28.6 0 0 724.51 388.97
  L 724.49 419.58
  A 0.57 0.56 0.0 0 1 723.92 420.14
  L 714.51 420.15
  Q 713.61 420.15 713.61 419.26
  L 713.64 389.18
  Q 713.64 387.64 712.79 386.37
  L 686.05 346.21
  A 0.23 0.23 0.0 0 1 686.24 345.86
  L 697.48 345.86
  A 1.48 1.47 72.8 0 1 698.70 346.51
  L 718.64 375.78
  Z"
/>
</svg>
